<svg width="24" height="24" viewBox="0 0 24 24" fill="none" xmlns="http://www.w3.org/2000/svg">
<g id="arrow" clip-path="url(#clip0_23_306)">
<g id="Group">
<g id="Group_2">
<path id="Vector" d="M0.146485 12.3535L7.64648 19.8535C7.84181 20.0488 8.15822 20.0488 8.3535 19.8535C8.54883 19.6582 8.54883 19.3418 8.3535 19.1465L1.707 12.5L23.5 12.5C23.7764 12.5 24 12.2763 24 12C24 11.7236 23.7764 11.5 23.5 11.5L1.707 11.5L8.3535 4.8535C8.54883 4.65818 8.54883 4.34177 8.3535 4.14649C8.25586 4.04885 8.12789 4 7.99997 4C7.87205 4 7.74413 4.04885 7.64644 4.14649L0.146437 11.6465C-0.0488427 11.8418 -0.0488427 12.1582 0.146485 12.3535Z" fill="white"/>
</g>
</g>
</g>
<defs>
<clipPath id="clip0_23_306">
<rect width="24" height="24" fill="white" transform="translate(24 24) rotate(-180)"/>
</clipPath>
</defs>
</svg>
